<?xml version="1.0" standalone="no"?>
<!DOCTYPE svg PUBLIC "-//W3C//DTD SVG 20010904//EN"
 "http://www.w3.org/TR/2001/REC-SVG-20010904/DTD/svg10.dtd">
<svg version="1.0" xmlns="http://www.w3.org/2000/svg"
 width="32.000000pt" height="32.000000pt" viewBox="0 0 32.000000 32.000000"
 preserveAspectRatio="xMidYMid meet">

<g transform="translate(0.000000,32.000000) scale(0.100000,-0.100000)"
fill="#000000" stroke="none">
<path d="M100 283 c-74 -38 -102 -132 -60 -201 70 -115 240 -84 265 49 8 46
-18 113 -55 139 -41 29 -107 35 -150 13z m114 -7 c41 -17 74 -58 82 -102 13
-68 -60 -154 -130 -154 -70 0 -136 66 -136 136 0 41 37 95 80 116 42 22 60 22
104 4z"/>
<path d="M103 250 c-32 -19 -53 -48 -53 -71 0 -6 10 3 23 22 12 18 33 39 45
45 27 13 39 24 26 24 -5 0 -23 -9 -41 -20z"/>
<path d="M133 203 c-16 -3 -23 -11 -23 -28 0 -13 4 -26 9 -29 4 -3 6 6 3 19
-4 24 -2 25 44 25 26 0 45 2 43 4 -9 7 -55 13 -76 9z"/>
<path d="M130 166 c0 -2 18 -6 40 -8 22 -2 40 0 40 4 0 5 -18 8 -40 8 -22 0
-40 -2 -40 -4z"/>
<path d="M258 114 c-7 -16 -28 -39 -47 -51 -39 -26 -34 -30 9 -8 28 14 67 71
57 82 -3 2 -11 -8 -19 -23z"/>
<path d="M158 103 c7 -3 16 -2 19 1 4 3 -2 6 -13 5 -11 0 -14 -3 -6 -6z"/>
</g>
</svg>
